<?xml version="1.0" standalone="no"?>
<!DOCTYPE svg PUBLIC "-//W3C//DTD SVG 20010904//EN"
 "http://www.w3.org/TR/2001/REC-SVG-20010904/DTD/svg10.dtd">
<svg version="1.0" xmlns="http://www.w3.org/2000/svg"
 width="256.000000pt" height="256.000000pt" viewBox="0 0 256.000000 256.000000"
 preserveAspectRatio="xMidYMid meet">
<metadata>
Created by potrace 1.11, written by Peter Selinger 2001-2013
</metadata>
<g transform="translate(0.000000,256.000000) scale(0.100000,-0.100000)"
fill="#000000" stroke="none">
<path d="M596 2442 c-2 -4 -21 -9 -41 -10 -31 -2 -76 -22 -95 -42 -3 -3 -17
-11 -32 -19 -14 -7 -29 -22 -31 -33 -4 -13 -10 -17 -18 -12 -9 5 -11 1 -7 -14
4 -12 2 -22 -3 -22 -5 0 -12 -12 -15 -27 -4 -16 -9 -32 -12 -38 -9 -14 -8
-126 1 -132 4 -2 5 -9 2 -14 -4 -5 -1 -9 6 -9 7 0 10 -3 6 -6 -19 -19 88 -154
121 -154 5 0 23 -7 40 -16 57 -28 137 -25 211 8 112 50 163 128 166 253 0 39
-4 79 -9 90 -6 11 -10 23 -11 26 -1 18 -68 99 -102 122 -33 23 -133 53 -133
40 0 -2 -9 1 -19 7 -11 5 -22 6 -25 2z"/>
<path d="M973 2400 c-16 -15 -18 -38 -18 -238 1 -191 3 -225 17 -242 15 -17
33 -19 241 -20 194 0 227 2 241 15 14 14 16 48 17 223 1 232 1 246 -12 250 -5
2 -9 9 -9 16 0 10 -52 13 -230 13 -200 0 -232 -2 -247 -17z"/>
<path d="M1567 2395 c-8 -13 -12 -93 -13 -240 -1 -185 1 -223 14 -237 14 -16
38 -18 241 -18 167 1 230 4 243 13 14 12 17 38 17 218 0 112 2 216 4 230 3 20
-2 30 -24 43 -23 14 -59 16 -249 14 -212 -2 -222 -3 -233 -23z"/>
<path d="M570 1820 c-14 -3 -60 -5 -102 -4 -103 3 -110 -5 -108 -126 2 -157 1
-188 -3 -243 -4 -56 4 -122 18 -135 3 -4 108 -7 232 -7 197 -1 229 2 247 16
20 16 21 26 20 225 -1 208 -3 246 -18 261 -4 5 -60 8 -125 9 -64 0 -121 3
-126 6 -6 3 -21 2 -35 -2z"/>
<path d="M971 1799 c-14 -15 -16 -45 -16 -231 1 -118 5 -219 9 -226 4 -7 4
-12 -1 -12 -4 0 1 -6 12 -12 14 -9 89 -13 239 -13 182 0 223 2 238 15 16 14
18 35 19 239 0 193 -2 226 -16 240 -13 14 -48 16 -241 17 -205 1 -228 -1 -243
-17z"/>
<path d="M378 1210 c-13 -8 -17 -23 -16 -68 1 -32 -2 -64 -6 -70 -4 -7 -4 -12
1 -12 9 0 9 -213 -1 -228 -3 -6 -2 -13 4 -17 6 -4 7 -13 2 -23 -9 -18 -9 -24
3 -59 l7 -23 243 0 c241 0 242 0 252 23 15 35 11 450 -5 470 -12 13 -46 16
-240 16 -136 0 -234 -3 -244 -9z"/>
<path d="M969 1204 c-19 -23 -21 -428 -2 -466 l14 -28 177 -1 c192 -2 295 1
301 6 12 13 15 90 11 276 -4 172 -8 211 -20 219 -8 5 -117 10 -241 10 -194 0
-228 -2 -240 -16z"/>
<path d="M1567 1206 c-11 -12 -14 -57 -12 -238 1 -122 5 -231 9 -240 7 -16 29
-18 246 -18 181 0 240 3 248 13 13 15 14 490 2 482 -5 -3 -11 -1 -15 5 -4 6
-91 10 -235 10 -184 0 -231 -3 -243 -14z"/>
<path d="M386 619 c2 -4 -3 -10 -12 -13 -8 -3 -13 -10 -9 -15 3 -5 1 -12 -4
-15 -9 -6 -7 -133 2 -143 3 -3 2 -15 -3 -28 -5 -13 -6 -26 -3 -29 4 -3 7 -59
8 -124 0 -64 4 -123 8 -129 6 -10 66 -13 242 -13 232 0 235 0 248 23 11 17 14
71 13 239 -1 190 -3 219 -18 234 -15 15 -44 17 -247 18 -126 1 -227 -2 -225
-5z"/>
<path d="M972 607 c-13 -15 -16 -49 -16 -229 -1 -160 2 -218 13 -240 l13 -28
219 0 c222 0 265 6 271 36 1 9 1 115 -2 235 -4 155 -9 222 -18 231 -9 9 -71
12 -238 13 -204 0 -227 -2 -242 -18z"/>
</g>
</svg>
